<svg width="200" height="200" viewBox="0 0 200 200" fill="none" xmlns="http://www.w3.org/2000/svg">
<rect width="200" height="200" rx="30" fill="white"/>
<path d="M103.632 147.792C96.5493 147.792 89.9787 146.683 83.92 144.464C77.9467 142.16 72.7413 138.917 68.304 134.736C63.952 130.555 60.5387 125.648 58.064 120.016C55.5893 114.299 54.352 108.027 54.352 101.2C54.352 94.3733 55.5893 88.144 58.064 82.512C60.5387 76.7947 63.952 71.8453 68.304 67.664C72.7413 63.4827 77.9467 60.2827 83.92 58.064C89.9787 55.76 96.5493 54.608 103.632 54.608C111.909 54.608 119.291 56.0587 125.776 58.96C132.347 61.8613 137.808 66.0427 142.16 71.504L126.032 86.096C123.131 82.6827 119.931 80.08 116.432 78.288C113.019 76.496 109.179 75.6 104.912 75.6C101.243 75.6 97.872 76.1973 94.8 77.392C91.728 78.5867 89.0827 80.336 86.864 82.64C84.7307 84.8587 83.024 87.5467 81.744 90.704C80.5493 93.8613 79.952 97.36 79.952 101.2C79.952 105.04 80.5493 108.539 81.744 111.696C83.024 114.853 84.7307 117.584 86.864 119.888C89.0827 122.107 91.728 123.813 94.8 125.008C97.872 126.203 101.243 126.8 104.912 126.8C109.179 126.8 113.019 125.904 116.432 124.112C119.931 122.32 123.131 119.717 126.032 116.304L142.16 130.896C137.808 136.272 132.347 140.453 125.776 143.44C119.291 146.341 111.909 147.792 103.632 147.792Z" fill="#1A43EF"/>
</svg>
